<?xml version="1.0" standalone="no"?>
<!DOCTYPE svg PUBLIC "-//W3C//DTD SVG 20010904//EN"
 "http://www.w3.org/TR/2001/REC-SVG-20010904/DTD/svg10.dtd">
<svg version="1.0" xmlns="http://www.w3.org/2000/svg"
 width="260.000000pt" height="260.000000pt" viewBox="0 0 260.000000 260.000000"
 preserveAspectRatio="xMidYMid meet">
<metadata>
Created by potrace 1.11, written by Peter Selinger 2001-2013
</metadata>
<g transform="translate(0.000000,260.000000) scale(0.100000,-0.100000)"
fill="#000000" stroke="none">
<path d="M383 2586 c-181 -44 -334 -202 -372 -384 -8 -36 -11 -321 -10 -910 0
-777 2 -863 17 -923 46 -173 202 -321 380 -358 36 -8 321 -11 910 -10 777 0
863 2 923 17 173 46 321 202 358 380 15 74 15 1730 0 1804 -39 187 -200 348
-387 387 -80 17 -1749 14 -1819 -3z m477 -1286 l0 -730 -130 0 -130 0 0 730 0
730 130 0 130 0 0 -730z m875 705 c104 -38 158 -87 202 -180 25 -54 28 -70 27
-165 0 -113 -16 -171 -69 -248 l-26 -37 23 -14 c13 -8 46 -38 73 -65 86 -87
121 -224 96 -372 -24 -139 -94 -240 -205 -294 -104 -51 -170 -60 -478 -60
l-278 0 0 731 0 731 293 -4 c253 -4 299 -7 342 -23z"/>
<path d="M1360 1610 l0 -170 134 0 135 0 21 29 c48 68 64 178 36 245 -21 50
-71 66 -211 66 l-115 0 0 -170z"/>
<path d="M1360 1009 l0 -191 158 4 c175 3 206 13 249 77 43 64 42 187 -3 240
-40 47 -98 61 -261 61 l-143 0 0 -191z"/>
</g>
</svg>
